<mxfile host="app.diagrams.net" modified="2023-10-31T10:47:13.200Z" agent="Mozilla/5.0 (Macintosh; Intel Mac OS X 10_15_7) AppleWebKit/605.1.15 (KHTML, like Gecko) Version/16.4 Safari/605.1.15" version="22.0.8" etag="tQ2mJ9IWY6Jy65O3pv4O" type="github">
  <diagram name="Страница — 1" id="LzMCHIkyoPyYnam3HbV3">
    <mxGraphModel>
      <root>
        <mxCell id="0" />
        <mxCell id="1" parent="0" />
      </root>
    </mxGraphModel>
  </diagram>
</mxfile>
